PathFileType	4	(X/Y/Z)	C:/Users/beibeiliu/ov580/test_trc\sequence.9_training_dense_left.trc
DataRate	CameraRate	NumFrames	NumMarkers	Units	OrigDataRate	OrigDataStartFrame	OrigNumFrames
120	120	13	19	mm	120	299	398
Frame#	Time	ThumbCMC			ThumbMCP			ThumbIP			ThumbTip			IndexMCP			IndexPIP			IndexTip			MiddleMCP			MiddlePIP			MiddleTip			RingMCP			RingPIP			RingTip			PinkyMCP			PinkyPIP			PinkyTip			BackHand1			BackHand2			BackHand3	
		X0	Y0	Z0	X1	Y1	Z1	X2	Y2	Z2	X3	Y3	Z3	X4	Y4	Z4	X5	Y5	Z5	X6	Y6	Z6	X7	Y7	Z7	X8	Y8	Z8	X9	Y9	Z9	X10	Y10	Z10	X11	Y11	Z11	X12	Y12	Z12	X13	Y13	Z13	X14	Y14	Z14	X15	Y15	Z15	X16	Y16	Z16	X17	Y17	Z17	X18	Y18	Z18	
298	2.48333	-166.607	-20.5157	-14.9776	-167.004	-40.418	-25.2064	-168.435	-55.2672	-43.6257	-160.846	-65.9517	-49.5818	-213.291	-38.7842	-64.9941	-228.132	-50.4511	-73.1114	-241.859	-63.5244	-86.8289	-230.995	-23.4441	-64.5584	-246.504	-30.7145	-72.5727	-271.11	-35.7138	-86.3338	-239.558	-4.44924	-54.9592	-257.73	-9.60044	-64.2255	-271.912	-11.3119	-71.1403	-242.784	17.1733	-38.5313	-258.326	21.0415	-42.0779	-266.719	29.249	-47.6107	-199.011	14.3595	-32.2662	-181.983	25.1444	-16.821	-176.88	1.28684	-30.7146	
299	2.49167	-167.98	-21.455	-17.5457	-172.103	-37.1338	-27.2291	-169.744	-53.8152	-47.9481	-159.839	-65.5942	-56.8875	-215.732	-33.7848	-68.0904	-228.502	-42.2151	-78.5075	-240.122	-51.8039	-90.7031	-235.027	-14.5337	-66.7629	-247.726	-21.9228	-75.9295	-265.163	-27.8796	-90.466	-239.013	4.81833	-52.1254	-258.952	0.711718	-63.271	-270.399	-4.22279	-75.0606	-241.248	23.1236	-33.5204	-254.12	21.7074	-41.1049	-268.303	35.6729	-52.5431	-199.602	18.581	-31.9763	-183.339	27.087	-16.636	-178.599	2.19034	-31.2395	
300	2.5	-168.629	-20.1758	-13.5669	-173.618	-38.6134	-33.1087	-173.656	-50.82	-48.6258	-164.051	-64.8247	-58.0536	-217.193	-27.7486	-70.5618	-226.79	-40.3513	-81.5227	-242.012	-43.9936	-96.8046	-234.533	-8.56512	-67.272	-249.255	-15.9734	-79.2859	-265.253	-20.6568	-94.6017	-241.787	8.50696	-55.5384	-255.407	4.0623	-63.9767	-273.874	5.67378	-80.1534	-245.018	26.9118	-35.4453	-256.126	29.1361	-39.5689	-266.633	37.4264	-48.4301	-200.516	18.2741	-30.1915	-182.563	24.4804	-18.1695	-180.437	5.10234	-31.3886	
301	2.50833	-173.06	-19.113	-18.4432	-174.434	-38.1818	-36.3583	-172.22	-51.9264	-50.0377	-166.658	-60.904	-58.5835	-215.215	-22.683	-71.1144	-226.401	-32.9397	-85.5711	-237.061	-40.4933	-104.108	-231.619	-3.76829	-67.9693	-251.901	-9.25526	-85.2097	-266.008	-8.18016	-99.6652	-238.799	9.94351	-56.1984	-257.342	12.729	-66.9284	-271.32	10.6439	-85.5864	-244.582	29.7957	-34.9107	-258.161	32.5389	-40.3648	-267.551	41.5847	-49.4939	-203.588	22.7602	-29.2603	-184.754	27.7006	-15.9066	-178.941	4.6589	-33.7692	
302	2.51667	-172.028	-19.9121	-21.2417	-174.826	-37.3041	-39.5448	-173.757	-47.0588	-52.7613	-164.514	-59.5793	-66.2722	-210.955	-20.3344	-76.479	-222.824	-25.5922	-91.4494	-234.27	-30.1958	-113.924	-233.623	0.853152	-73.561	-248.665	-3.27644	-90.1817	-259.817	-2.7414	-106.427	-241.984	15.3542	-60.8751	-256.998	18.231	-68.4755	-271.085	19.6991	-87.7342	-245.551	30.1112	-37.065	-259.074	34.3977	-43.7486	-269.38	46.1942	-49.2473	-203.423	24.1116	-30.5762	-188.328	29.5836	-13.5754	-178.958	5.96735	-31.8333	
303	2.525	-175.35	-18.174	-21.2544	-176.472	-35.3637	-40.9468	-177.159	-44.6956	-56.484	-167.684	-56.7654	-66.2556	-213.566	-12.5256	-78.4378	-225.311	-17.9653	-97.3654	-230.936	-21.0943	-115.518	-233.539	4.76709	-78.7574	-248.418	3.96535	-92.8579	-258.85	4.04383	-113.435	-241.351	19.9787	-57.4646	-254.523	19.1603	-72.9857	-268.974	24.8713	-88.0115	-245.095	30.3865	-38.5004	-262.221	39.4224	-42.1968	-269.236	47.6408	-47.992	-207.099	24.8637	-33.5488	-190.826	31.1784	-15.7336	-181.713	9.01438	-32.4625	
304	2.53333	-177.877	-16.1263	-24.1746	-177.66	-34.6567	-42.199	-178.695	-41.6568	-61.7016	-170.899	-51.9643	-74.3347	-212.566	-9.48531	-81.3458	-222.196	-12.3521	-101.295	-227.61	-10.9611	-120.178	-232.73	10.2681	-76.8132	-244.086	10.0832	-91.7988	-256.882	15.1572	-114.706	-242.805	22.2053	-63.0827	-255.518	24.413	-78.3563	-266.335	29.5578	-87.8042	-249.042	32.8185	-38.4146	-262.512	38.1706	-45.0196	-270.488	51.135	-50.0191	-204.56	25.7788	-31.3492	-191.109	26.4508	-14.8289	-181.674	8.69049	-35.3009	
305	2.54167	-177.909	-14.0305	-27.9009	-181.325	-29.1544	-43.9112	-175.206	-39.8514	-65.199	-167.61	-49.4774	-76.5314	-208.669	-7.07491	-87.6483	-216.545	-5.40228	-103.084	-220.905	-2.74963	-126.864	-229.734	13.9981	-77.3871	-240.565	13.5452	-96.4572	-251.783	18.9102	-120.034	-242.54	24.9197	-62.0468	-255.532	29.5128	-73.7774	-265.269	33.008	-92.1125	-248.079	32.359	-35.9756	-262.713	39.158	-44.5748	-273.253	52.3619	-52.1683	-209.339	26.5103	-31.1102	-196.058	31.7458	-15.2074	-183.687	13.1403	-33.2587	
306	2.55	-178.262	-13.7293	-25.3212	-182.117	-28.1134	-47.052	-175.032	-37.5161	-68.9404	-165.898	-46.7369	-76.0995	-209.594	-1.43079	-86.7509	-216.121	-0.886219	-107.439	-218.037	2.12644	-126.438	-229.104	15.898	-80.6481	-240.175	17.354	-98.8692	-250.099	23.8336	-122.933	-244.443	26.842	-64.1501	-256.489	30.8031	-81.1457	-265.464	37.4226	-91.3103	-248.421	31.2827	-41.2588	-264.706	38.6734	-47.8269	-273.45	51.2642	-51.0739	-210.611	26.8064	-33.7695	-197.091	30.3577	-14.1573	-187.147	16.1973	-33.8124	
307	2.55833	-175.559	-15.2307	-27.5108	-176.651	-30.6372	-45.7092	-174.651	-36.6147	-66.7156	-165.046	-44.7403	-79.7031	-205.298	-0.252569	-87.5628	-212.702	1.52438	-106.643	-214.972	5.91421	-125.105	-229.068	17.4826	-81.9954	-239.59	21.8388	-103.711	-246.914	27.6467	-122.601	-241.367	25.6822	-68.4468	-253.5	30.1974	-82.8772	-264.135	39.0998	-92.7263	-251.656	32.5526	-41.7564	-263.013	38.0011	-48.6834	-274.319	53.1945	-54.3474	-212.603	26.6935	-31.9628	-198.068	28.317	-15.6545	-184.493	13.8041	-35.0201	
308	2.56667	-180.155	-14.4617	-30.0373	-177.446	-29.5575	-46.2616	-170.163	-37.9439	-66.6396	-164.168	-44.7928	-77.2392	-202.667	-0.0269962	-88.5165	-205.136	2.06104	-109.841	-208.763	8.40698	-127.226	-224.754	18.6606	-83.2265	-233.784	21.3103	-103.791	-241.894	31.682	-121.637	-242.198	27.3437	-68.9584	-252.385	32.9067	-82.5167	-259.497	37.9553	-98.2867	-250.177	30.7295	-41.1959	-266.174	39.5329	-50.3656	-271.56	51.0094	-55.2217	-211.046	24.6624	-34.1543	-202.053	27.5926	-13.0183	-189.626	14.3815	-34.5926	
309	2.575	-180.23	-15.0189	-31.3119	-180.269	-27.1213	-49.5062	-170.573	-35.3679	-70.2509	-158.904	-42.4315	-82.3248	-200.782	1.19201	-87.7063	-205.912	5.44952	-108.833	-203.438	10.8365	-127.953	-221.071	17.5617	-86.4354	-228.148	21.2146	-104.939	-238.285	34.0065	-124.208	-239.826	26.6309	-67.7285	-248.941	31.4717	-87.7071	-259.383	43.2444	-103.525	-250.851	30.4071	-49.1889	-263.813	37.6224	-55.218	-272.771	51.8032	-62.798	-215.136	27.2471	-34.2442	-202.539	25.2961	-10.9129	-190.406	14.8553	-36.9353	
310	2.58333	-181.153	-15.2024	-30.1492	-176.528	-28.8206	-49.3033	-172.125	-34.3819	-66.4367	-159.21	-43.1468	-77.0228	-198.291	0.0150755	-88.7871	-203.341	5.0146	-108.537	-202.729	11.7864	-127.897	-220.591	16.9966	-87.551	-228.014	23.7324	-106.04	-231.313	35.4126	-127.364	-238.55	25.5918	-70.335	-246.536	31.5054	-88.6847	-257.04	43.8255	-103.573	-251.827	29.6267	-50.643	-265.599	37.3982	-58.7344	-271.57	48.8303	-66.8257	-217.511	25.9169	-34.7522	-202.919	23.4215	-15.2215	-189.54	10.5808	-32.6827	
